:SAMPLES-PER-SECOND 30
:FULLY-SPECIFIED
:DEGREES
320
root  93.5801 37.0707 -30.5383 39.0444 -80.0378 -1.02368
RightUpLeg  -68.1738 -20.8969 22.5988
RightLeg  33.67 -2.35698 -1.94722
RightFoot  -9.29963 0.0373546 -5.606
RightToes  0.000482159 0.542163 -0.142577
Spine  78.2377 -4.64369 9.94082
Spine1  5.67057 4.44708 -3.23595
HEad  -44.345 -9.6799 3.94381
LeftShoulder1  14.1014 -32.9953 -32.2265
LeftArm  -75.8397 -69.1329 21.1935
LeftForeArm  5.10261 -27.8444 -5.73801
LeftHand  -0.25398 0.0180481 5.50724
RightShoulder  4.47511 13.268 20.2756
RightArm  -69.9966 60.5512 -22.0745
RightForeArm  -31.399 24.5696 6.6599
RightHand  -0.389154 10.7202 -3.33408
LeftUpLeg  -67.9197 18.8363 -23.0129
LeftLeg  33.2982 1.44829 1.38177
LeftFoot  -7.16596 -0.165005 5.63549
LeftToes  1.06247e-005 4.65854e-005 -8.18501e-006
321
root  93.5651 37.2022 -30.3412 40.6874 -80.5013 -2.75898
RightUpLeg  -67.2646 -20.9249 22.5707
RightLeg  32.1159 -2.21136 -1.74808
RightFoot  -8.70448 0.072357 -5.68538
RightToes  0.000482159 0.542163 -0.142577
Spine  77.6784 -4.76547 9.95504
Spine1  4.90907 4.62864 -4.03441
HEad  -43.7956 -9.84873 3.86511
LeftShoulder1  14.7471 -32.8133 -34.1208
LeftArm  -70.355 -69.1695 16.4202
LeftForeArm  6.7552 -29.6402 -6.07745
LeftHand  -0.25398 0.0180481 5.50724
RightShoulder  4.90252 14.5621 20.7719
RightArm  -69.0658 59.2034 -21.0368
RightForeArm  -31.2389 23.5121 6.41738
RightHand  -0.236524 10.2845 -2.27718
LeftUpLeg  -67.3558 19.2979 -23.3469
LeftLeg  32.2959 1.39682 1.30653
LeftFoot  -7.02667 -0.179241 5.87597
LeftToes  1.06247e-005 4.65854e-005 -8.18501e-006
322
root  93.5619 37.3001 -30.105 43.1565 -80.7121 -4.97513
RightUpLeg  -66.6626 -20.975 22.6934
RightLeg  30.5036 -1.87113 -1.43435
RightFoot  -8.35718 0.0901903 -5.62887
RightToes  0.000482159 0.542163 -0.142577
Spine  75.5413 -4.77289 9.71167
Spine1  7.70187 4.52981 -4.58029
HEad  -45.6867 -9.10264 4.13053
LeftShoulder1  13.2675 -32.6615 -30.2265
LeftArm  -73.255 -68.6203 14.7234
LeftForeArm  10.5442 -31.6711 -6.36926
LeftHand  -0.25398 0.0180481 5.50724
RightShoulder  4.95215 15.4296 19.6973
RightArm  -72.2538 58.121 -22.1133
RightForeArm  -30.5331 23.2595 6.33595
RightHand  -0.105166 10.0654 -1.30683
LeftUpLeg  -67.1155 19.2684 -23.4806
LeftLeg  31.4009 1.53157 1.36158
LeftFoot  -6.90335 -0.199919 6.20868
LeftToes  1.06247e-005 4.65854e-005 -8.18501e-006
323
root  93.5721 37.4165 -29.8468 46.774 -81.0541 -8.35076
RightUpLeg  -66.2425 -21.0558 23.1203
RightLeg  28.9523 -1.36096 -1.05679
RightFoot  -7.57537 0.108629 -4.90204
RightToes  0.000482159 0.542163 -0.142577
Spine  73.8953 -4.71321 9.6841
Spine1  7.35356 4.49514 -5.15403
HEad  -45.1813 -8.92195 3.84434
LeftShoulder1  13.387 -32.3899 -30.8516
LeftArm  -67.561 -67.5252 8.53932
LeftForeArm  13.9333 -34.0461 -6.78848
LeftHand  -0.25398 0.0180481 5.50724
RightShoulder  5.37234 16.4558 20.491
RightArm  -69.1534 56.749 -19.5288
RightForeArm  -27.955 24.2998 6.46853
RightHand  0.164593 9.65209 0.758986
LeftUpLeg  -66.83 19.3104 -23.5192
LeftLeg  30.369 1.7894 1.4834
LeftFoot  -6.7719 -0.218696 6.50106
LeftToes  1.06247e-005 4.65854e-005 -8.18501e-006
324
root  93.5707 37.6008 -29.5755 50.8744 -81.6428 -12.9372
RightUpLeg  -64.7188 -21.1092 22.8782
RightLeg  27.1165 -0.308546 -0.405061
RightFoot  -6.16574 0.164775 -4.43149
RightToes  0.000482159 0.542163 -0.142577
Spine  73.0154 -4.52822 9.3531
Spine1  5.81089 4.46768 -5.80378
HEad  -44.0628 -8.73495 3.56132
LeftShoulder1  13.699 -31.7049 -32.4781
LeftArm  -59.1057 -65.7083 0.431818
LeftForeArm  16.8937 -36.7072 -7.33949
LeftHand  -0.25398 0.0180481 5.50724
RightShoulder  6.01799 17.1774 22.8695
RightArm  -63.57 55.7695 -16.3947
RightForeArm  -24.6785 25.772 6.68665
RightHand  0.42126 9.05991 2.86121
LeftUpLeg  -65.7279 19.9733 -23.4586
LeftLeg  29.1009 2.01703 1.56427
LeftFoot  -6.68291 -0.226277 6.54727
LeftToes  1.06247e-005 4.65854e-005 -8.18501e-006
325
root  93.5366 37.9128 -29.2597 54.5819 -81.7916 -18.7047
RightUpLeg  -61.5924 -21.9552 22.284
RightLeg  25.3433 0.882749 0.227777
RightFoot  -3.32289 0.395107 -5.97205
RightToes  0.000482159 0.542163 -0.142577
Spine  72.8977 -4.50796 9.30529
Spine1  6.43856 4.56729 -6.28098
HEad  -44.7024 -8.41829 3.90977
LeftShoulder1  12.9863 -31.7353 -30.4462
LeftArm  -55.1918 -63.2477 -6.19377
LeftForeArm  19.684 -39.4075 -7.95627
LeftHand  -0.25398 0.0180481 5.50724
RightShoulder  7.36344 17.8304 28.1735
RightArm  -60.3327 54.767 -20.2924
RightForeArm  -24.1535 26.8793 6.93073
RightHand  0.505112 8.52204 3.70185
LeftUpLeg  -62.616 21.1498 -22.4138
LeftLeg  27.3771 2.18703 1.57395
LeftFoot  -6.49384 -0.231013 6.37649
LeftToes  1.06247e-005 4.65854e-005 -8.18501e-006
326
root  93.4624 38.2 -28.8883 52.6884 -81.756 -19.3477
RightUpLeg  -57.9891 -24.2306 21.7126
RightLeg  23.1538 2.01788 0.702496
RightFoot  -2.17078 0.514429 -6.5941
RightToes  0.000482159 0.542163 -0.142577
Spine  72.3884 -4.69693 9.55159
Spine1  7.13307 4.73201 -6.52049
HEad  -45.1464 -8.71348 4.23193
LeftShoulder1  12.6719 -32.5055 -28.7391
LeftArm  -50.7567 -60.4363 -12.9934
LeftForeArm  21.8154 -41.9436 -8.61493
LeftHand  -0.25398 0.0180481 5.50724
RightShoulder  9.6654 19.1662 36.47
RightArm  -56.3206 52.0551 -28.3926
RightForeArm  -25.5977 28.0907 7.28694
RightHand  0.540861 7.96167 4.20969
LeftUpLeg  -58.385 21.5433 -21.1393
LeftLeg  25.5739 2.62589 1.70965
LeftFoot  -6.36739 -0.231914 6.2172
LeftToes  1.06247e-005 4.65854e-005 -8.18501e-006
327
root  93.3516 38.4593 -28.4878 50.8505 -81.6604 -20.0591
RightUpLeg  -54.1142 -26.652 20.9106
RightLeg  20.8412 3.39465 1.30479
RightFoot  -1.60888 0.506194 -6.06992
RightToes  0.000482159 0.542163 -0.142577
Spine  72.4277 -5.27306 8.63537
Spine1  6.45485 3.22222 -5.79958
HEad  -44.8621 -6.34019 3.07228
LeftShoulder1  12.4748 -29.0817 -31.9365
LeftArm  -44.792 -58.5659 -15.4216
LeftForeArm  21.1424 -44.2895 -9.46831
LeftHand  -0.25398 0.0180481 5.50724
RightShoulder  7.16977 17.1931 28.6683
RightArm  -53.0503 53.1007 -10.6299
RightForeArm  -16.0026 31.0459 7.63381
RightHand  0.625321 6.83824 5.47906
LeftUpLeg  -53.9204 21.4247 -19.4547
LeftLeg  23.8654 3.48091 2.02126
LeftFoot  -6.43418 -0.22451 6.13966
LeftToes  1.06247e-005 4.65854e-005 -8.18501e-006
